<svg width="51" height="51" viewBox="0 0 51 51" fill="none" xmlns="http://www.w3.org/2000/svg">
<circle cx="25.2525" cy="25.2525" r="25.2525" fill="white"/>
<path fill-rule="evenodd" clip-rule="evenodd" d="M20.6717 14.2075C21.8566 14.153 22.2344 14.1409 25.2525 14.1409C28.2707 14.1409 28.6485 14.154 29.8323 14.2075C31.0162 14.2611 31.8243 14.45 32.5313 14.7237C33.2717 15.0035 33.9435 15.4409 34.499 16.0065C35.0647 16.5611 35.501 17.2318 35.7798 17.9732C36.0546 18.6803 36.2424 19.4883 36.297 20.6702C36.3515 21.857 36.3637 22.2348 36.3637 25.252C36.3637 28.2702 36.3505 28.6479 36.297 29.8328C36.2435 31.0146 36.0546 31.8227 35.7798 32.5298C35.501 33.2713 35.0639 33.9431 34.499 34.4984C33.9435 35.0641 33.2717 35.5005 32.5313 35.7793C31.8243 36.054 31.0162 36.2419 29.8344 36.2964C28.6485 36.351 28.2707 36.3631 25.2525 36.3631C22.2344 36.3631 21.8566 36.35 20.6717 36.2964C19.4899 36.2429 18.6818 36.054 17.9748 35.7793C17.2333 35.5004 16.5615 35.0633 16.0061 34.4984C15.4408 33.9436 15.0034 33.2721 14.7243 32.5308C14.4505 31.8237 14.2626 31.0156 14.2081 29.8338C14.1536 28.6469 14.1414 28.2692 14.1414 25.252C14.1414 22.2338 14.1546 21.856 14.2081 20.6722C14.2616 19.4883 14.4505 18.6803 14.7243 17.9732C15.0038 17.2319 15.4416 16.5604 16.0071 16.0055C16.5617 15.4404 17.2328 15.0029 17.9738 14.7237C18.6808 14.45 19.4889 14.2621 20.6707 14.2075H20.6717ZM29.7424 16.2075C28.5707 16.154 28.2192 16.1429 25.2525 16.1429C22.2859 16.1429 21.9344 16.154 20.7626 16.2075C19.6788 16.257 19.0909 16.4378 18.699 16.5904C18.1808 16.7924 17.8101 17.0318 17.4212 17.4207C17.0526 17.7793 16.7689 18.2159 16.5909 18.6984C16.4384 19.0904 16.2576 19.6782 16.2081 20.7621C16.1546 21.9338 16.1435 22.2853 16.1435 25.252C16.1435 28.2186 16.1546 28.5702 16.2081 29.7419C16.2576 30.8257 16.4384 31.4136 16.5909 31.8055C16.7687 32.2873 17.0525 32.7247 17.4212 33.0833C17.7798 33.452 18.2172 33.7358 18.699 33.9136C19.0909 34.0661 19.6788 34.2469 20.7626 34.2964C21.9344 34.35 22.2849 34.3611 25.2525 34.3611C28.2202 34.3611 28.5707 34.35 29.7424 34.2964C30.8263 34.2469 31.4142 34.0661 31.8061 33.9136C32.3243 33.7116 32.695 33.4722 33.0839 33.0833C33.4525 32.7247 33.7364 32.2873 33.9142 31.8055C34.0667 31.4136 34.2475 30.8257 34.297 29.7419C34.3505 28.5702 34.3616 28.2186 34.3616 25.252C34.3616 22.2853 34.3505 21.9338 34.297 20.7621C34.2475 19.6782 34.0667 19.0904 33.9142 18.6984C33.7121 18.1803 33.4727 17.8096 33.0839 17.4207C32.7252 17.0521 32.2886 16.7684 31.8061 16.5904C31.4142 16.4378 30.8263 16.257 29.7424 16.2075ZM23.8334 28.6772C24.6259 29.0072 25.5085 29.0517 26.3302 28.8032C27.152 28.5547 27.862 28.0287 28.339 27.3149C28.816 26.601 29.0304 25.7438 28.9455 24.8895C28.8607 24.0352 28.4818 23.2368 27.8738 22.6308C27.4861 22.2434 27.0174 21.9467 26.5014 21.7622C25.9853 21.5777 25.4348 21.5099 24.8894 21.5637C24.344 21.6175 23.8173 21.7916 23.3473 22.0733C22.8772 22.3551 22.4755 22.7376 22.171 23.1932C21.8665 23.6489 21.6669 24.1664 21.5864 24.7085C21.5059 25.2506 21.5466 25.8038 21.7056 26.3283C21.8646 26.8527 22.1379 27.3354 22.5058 27.7416C22.8737 28.1478 23.3271 28.4673 23.8334 28.6772ZM21.2142 21.2136C21.7445 20.6833 22.3741 20.2626 23.067 19.9756C23.7599 19.6886 24.5025 19.5408 25.2525 19.5408C26.0025 19.5408 26.7452 19.6886 27.4381 19.9756C28.131 20.2626 28.7606 20.6833 29.2909 21.2136C29.8213 21.7439 30.2419 22.3735 30.5289 23.0664C30.816 23.7593 30.9637 24.502 30.9637 25.252C30.9637 26.002 30.816 26.7446 30.5289 27.4375C30.2419 28.1304 29.8213 28.76 29.2909 29.2904C28.2199 30.3614 26.7672 30.9631 25.2525 30.9631C23.7379 30.9631 22.2852 30.3614 21.2142 29.2904C20.1431 28.2193 19.5414 26.7667 19.5414 25.252C19.5414 23.7373 20.1431 22.2846 21.2142 21.2136ZM32.2303 20.3914C32.3617 20.2674 32.4669 20.1183 32.5397 19.953C32.6125 19.7876 32.6513 19.6093 32.654 19.4287C32.6566 19.248 32.623 19.0687 32.5551 18.9013C32.4871 18.7339 32.3863 18.5818 32.2586 18.454C32.1308 18.3263 31.9787 18.2255 31.8113 18.1576C31.6439 18.0896 31.4646 18.056 31.2839 18.0586C31.1033 18.0613 30.925 18.1001 30.7596 18.1729C30.5943 18.2457 30.4452 18.3509 30.3212 18.4823C30.0801 18.7379 29.9481 19.0774 29.9533 19.4287C29.9584 19.78 30.1002 20.1155 30.3487 20.3639C30.5971 20.6124 30.9326 20.7542 31.2839 20.7594C31.6352 20.7645 31.9747 20.6325 32.2303 20.3914Z" fill="#FF0080"/>
</svg>
