<svg width="36" height="36" viewBox="0 0 36 36" fill="none" xmlns="http://www.w3.org/2000/svg">
<path d="M30.063 23.6011H10.1505L9.61051 20.7886H30.153C30.8006 20.7904 31.4286 20.5669 31.9294 20.1564C32.4303 19.7459 32.7727 19.1739 32.898 18.5386L34.788 9.5386C34.8751 9.12927 34.8697 8.70566 34.7722 8.29868C34.6748 7.89169 34.4877 7.51158 34.2247 7.18606C33.9617 6.86054 33.6294 6.59782 33.2519 6.41704C32.8745 6.23627 32.4615 6.142 32.043 6.1411H6.77551L6.28051 3.3511H1.15051V6.1636H3.96301L7.33801 23.8036C6.35779 24.0352 5.48361 24.589 4.8554 25.3763C4.22719 26.1636 3.88127 27.1389 3.87301 28.1461C3.9257 29.3856 4.46605 30.554 5.37635 31.3969C6.28666 32.2398 7.49315 32.6888 8.73301 32.6461C9.96299 32.6766 11.1555 32.2215 12.0524 31.3793C12.9494 30.5371 13.4786 29.3756 13.5255 28.1461C13.5214 27.5505 13.399 26.9616 13.1655 26.4136H25.518C25.2845 26.9616 25.1622 27.5505 25.158 28.1461C25.2107 29.3856 25.7511 30.554 26.6614 31.3969C27.5717 32.2398 28.7782 32.6888 30.018 32.6461C31.2115 32.6461 32.3561 32.172 33.2 31.3281C34.0439 30.4842 34.518 29.3396 34.518 28.1461C34.518 26.9526 34.0439 25.808 33.2 24.9641C32.3561 24.1202 31.2115 23.6461 30.018 23.6461L30.063 23.6011ZM32.043 9.0211L30.153 18.0211H9.02551L7.36051 9.0211H32.043ZM8.73301 29.8786C8.24779 29.8922 7.77556 29.7207 7.41207 29.399C7.04857 29.0773 6.82101 28.6294 6.77551 28.1461C6.82133 27.6465 7.06165 27.1849 7.44466 26.8608C7.82767 26.5367 8.32269 26.3761 8.82301 26.4136C9.32095 26.3763 9.81341 26.5376 10.1928 26.8622C10.5723 27.1868 10.8078 27.6484 10.848 28.1461C10.8286 28.4009 10.7578 28.6492 10.6397 28.8758C10.5216 29.1025 10.3588 29.3028 10.1611 29.4648C9.96343 29.6267 9.73494 29.7469 9.48947 29.818C9.24401 29.8892 8.98667 29.9098 8.73301 29.8786ZM30.063 29.8786C29.5627 29.9161 29.0677 29.7555 28.6847 29.4314C28.3016 29.1073 28.0613 28.6457 28.0155 28.1461C28.1026 27.6696 28.3541 27.2387 28.7262 26.9285C29.0983 26.6183 29.5673 26.4484 30.0518 26.4484C30.5362 26.4484 31.0053 26.6183 31.3773 26.9285C31.7494 27.2387 32.0009 27.6696 32.088 28.1461C32.0422 28.6416 31.805 29.0997 31.427 29.4231C31.0489 29.7466 30.5596 29.91 30.063 29.8786Z" fill="#FF0080"/>
</svg>
