<svg width="44" height="43" viewBox="0 0 44 43" fill="none" xmlns="http://www.w3.org/2000/svg">
<path d="M7.54323 8.01758C5.34517 8.01758 3.53461 9.82814 3.53461 12.0262V30.7331C3.53461 32.9312 5.34517 34.7417 7.54323 34.7417H36.9398C39.1378 34.7417 40.9484 32.9312 40.9484 30.7331V12.0262C40.9484 9.82814 39.1378 8.01758 36.9398 8.01758H7.54323ZM7.54323 10.69H36.9398C37.6947 10.69 38.276 11.2712 38.276 12.0262V30.7331C38.276 31.4881 37.6947 32.0693 36.9398 32.0693H7.54323C6.78827 32.0693 6.20702 31.4881 6.20702 30.7331V12.0262C6.20702 11.2712 6.78827 10.69 7.54323 10.69ZM10.2998 17.7051L7.54323 25.0542H9.21349L9.75599 23.384H12.8881L13.4306 25.0542H16.5626V19.5424L18.5669 25.0542H20.0287L22.0731 19.7094V25.0542H23.5363V17.7051H21.1538L19.3152 22.6758L17.4806 17.7051H14.8924V24.6801L12.3028 17.7051H10.2985H10.2998ZM25.5406 17.7051V25.0542H31.4253L33.2625 22.6758L35.0985 25.0542H36.9398L34.1832 21.3796L36.9398 17.7051H34.9355L33.0982 19.9178L31.5949 17.7051H25.5419H25.5406ZM11.2178 19.1669L12.1371 21.7551H10.2985L11.2178 19.1696V19.1669ZM27.0024 19.3753H30.677L32.1802 21.3796L30.5099 23.5924H27.0024V22.1319H30.3429V20.6287H27.0024V19.3753Z" fill="white"/>
</svg>
