<svg width="21" height="21" viewBox="0 0 21 21" fill="none" xmlns="http://www.w3.org/2000/svg">
<path d="M7.91392 9.95616C7.91392 10.4918 7.45077 10.926 6.87944 10.926C6.30811 10.926 5.84495 10.4918 5.84495 9.95616C5.84495 9.42054 6.30811 8.98634 6.87944 8.98634C7.45077 8.98634 7.91392 9.42054 7.91392 9.95616Z" fill="white"/>
<path d="M10.4999 10.926C11.0712 10.926 11.5344 10.4918 11.5344 9.95616C11.5344 9.42054 11.0712 8.98634 10.4999 8.98634C9.92855 8.98634 9.46539 9.42054 9.46539 9.95616C9.46539 10.4918 9.92855 10.926 10.4999 10.926Z" fill="white"/>
<path d="M15.1548 9.95616C15.1548 10.4918 14.6916 10.926 14.1203 10.926C13.549 10.926 13.0858 10.4918 13.0858 9.95616C13.0858 9.42054 13.549 8.98634 14.1203 8.98634C14.6916 8.98634 15.1548 9.42054 15.1548 9.95616Z" fill="white"/>
<path fill-rule="evenodd" clip-rule="evenodd" d="M1.53882 9.32285C1.53882 4.84871 5.54744 1.21509 10.5 1.21509C15.4526 1.21509 19.4612 4.84871 19.4612 9.32285C19.4612 13.797 15.4526 17.4306 10.5 17.4306C9.48489 17.4496 8.47418 17.2921 7.51296 16.9651C6.65206 17.7867 5.71705 18.5269 4.71985 19.1763C4.42551 19.3777 4.07545 19.4819 3.71885 19.4742C3.36225 19.4665 3.01703 19.3472 2.73169 19.1332C2.44635 18.9192 2.23521 18.6212 2.12795 18.281C2.02068 17.9408 2.02267 17.5756 2.13365 17.2366C2.69416 15.8009 2.7758 14.2225 2.3664 12.7366C1.8502 11.6708 1.56802 10.5068 1.53882 9.32285ZM17.8449 9.29698C17.8449 5.74095 14.5474 2.83147 10.5 2.83147C6.45261 2.83147 3.16813 5.77974 3.16813 9.36164C3.20255 10.3328 3.44508 11.2853 3.87934 12.1547C4.43662 13.9736 4.36833 15.9267 3.68537 17.7022V17.7797C3.71498 17.788 3.74628 17.788 3.77589 17.7797C4.6976 17.1924 5.56332 16.5214 6.36209 15.7754L7.08623 15.0513L8.05606 15.3875C8.84349 15.6504 9.66998 15.7773 10.5 15.7625C14.5474 15.7625 17.8449 12.853 17.8449 9.29698Z" fill="white"/>
</svg>
