<svg width="144" height="24" viewBox="0 0 144 24" fill="none" xmlns="http://www.w3.org/2000/svg">
<path fill-rule="evenodd" clip-rule="evenodd" d="M9.39877 8.06408C9.50506 7.30372 9.42074 6.72649 9.14714 6.34806C8.87013 5.96844 8.41074 5.77858 7.7724 5.77858H7.5564L6.93425 10.3494C7.68912 10.3324 8.26295 10.1449 8.65195 9.7777C9.04795 9.41043 9.29844 8.84453 9.39877 8.06408ZM13.8143 10.5773C13.154 11.3634 12.2386 11.9991 11.0703 12.4719L13.8143 20.9619H7.98584L6.50367 13.5488L5.49594 20.9619H0L2.59961 1.80203H8.92441C11.0658 1.80203 12.6773 2.32986 13.7693 3.39003C14.8532 4.44901 15.2769 5.88862 15.0322 7.70805C14.8775 8.82426 14.471 9.78554 13.8143 10.5773ZM22.4755 12.5504C22.5782 11.7923 22.531 11.2197 22.337 10.8345C22.142 10.4549 21.7922 10.2685 21.3016 10.2685C20.9148 10.2685 20.5755 10.4549 20.2823 10.8277C19.996 11.1994 19.7386 11.7722 19.5181 12.5504H22.4755ZM25.8359 8.81863C26.7099 9.93162 26.9926 11.6038 26.6924 13.8385C26.6532 14.1002 26.6302 14.3012 26.6047 14.4405C26.5827 14.5718 26.5539 14.6954 26.5182 14.8089H19.2122L19.1879 14.9941C19.0529 15.9812 19.0712 16.691 19.241 17.1211C19.4176 17.5513 19.7616 17.7702 20.2823 17.7702C20.6701 17.7702 20.9945 17.6422 21.268 17.3962C21.5439 17.1503 21.7691 16.7718 21.9411 16.2609H26.1465C25.7366 17.8398 24.9448 19.0774 23.7615 19.9838C22.584 20.8877 21.1595 21.338 19.5123 21.338C17.566 21.338 16.1507 20.7317 15.2641 19.5132C14.3754 18.2901 14.0856 16.554 14.3916 14.3012C14.702 12.035 15.4662 10.2752 16.7002 9.02978C17.9274 7.77653 19.5019 7.15211 21.4066 7.15211C23.4844 7.15211 24.9564 7.70805 25.8359 8.81863ZM34.6496 20.7496C34.2652 20.9506 33.8507 21.0989 33.4202 21.1943C32.9884 21.292 32.5025 21.338 31.976 21.338C30.1937 21.338 28.88 20.7103 28.0201 19.4446C27.167 18.1824 26.8876 16.4495 27.1832 14.2451C27.4787 12.0889 28.2427 10.3629 29.4734 9.07476C30.7028 7.78556 32.2012 7.15211 33.9534 7.15211C34.4372 7.15211 34.8873 7.1981 35.2891 7.27893C35.6966 7.37552 36.0776 7.50252 36.4215 7.68897L35.8628 11.7958C35.7058 11.6959 35.5395 11.6217 35.3676 11.5745C35.192 11.5263 35.0028 11.5049 34.795 11.5049C34.2767 11.5049 33.8219 11.7475 33.449 12.2372C33.0749 12.7257 32.8279 13.395 32.7126 14.2451C32.596 15.0975 32.6536 15.7444 32.8834 16.1744C33.1073 16.6079 33.509 16.8291 34.0758 16.8291C34.2362 16.8291 34.414 16.8044 34.6046 16.7539C34.795 16.7079 34.9982 16.6427 35.2152 16.5562L34.6496 20.7496ZM35.8535 20.9619L38.6899 0.0557861H43.6894L40.8555 20.9619H35.8535ZM50.7946 14.2451C50.9238 13.3007 50.9182 12.5785 50.7704 12.0889C50.6283 11.5892 50.3502 11.3432 49.9473 11.3432C49.5501 11.3432 49.2142 11.5892 48.9431 12.0777C48.6717 12.5684 48.4639 13.2916 48.3381 14.2451C48.2088 15.2019 48.211 15.9174 48.3484 16.4002C48.4847 16.8785 48.7571 17.1211 49.1589 17.1211C49.5721 17.1211 49.9103 16.8762 50.1886 16.3799C50.4701 15.8824 50.6734 15.1727 50.7946 14.2451ZM51.8173 7.52492H56.8169L54.9942 20.9619H49.998L50.1978 19.4839C49.6148 20.1308 49.0411 20.5957 48.4698 20.8956C47.9063 21.1921 47.3084 21.338 46.6908 21.338C45.3172 21.338 44.3243 20.7182 43.7171 19.4727C43.1065 18.2307 42.953 16.4867 43.252 14.2451C43.5613 11.9867 44.1835 10.2438 45.1197 9.00951C46.0547 7.76749 47.2206 7.15211 48.6163 7.15211C49.2454 7.15211 49.7984 7.2981 50.2878 7.59118C50.7646 7.88427 51.2147 8.34813 51.62 8.98269L51.8173 7.52492ZM56.4856 20.9619L58.3084 7.52492H63.1129L62.845 9.51946C63.4165 8.75016 64.0455 8.18076 64.7267 7.80676C65.41 7.44298 66.1754 7.25985 67.0215 7.25985C67.8122 7.25985 68.4402 7.44409 68.9112 7.82021C69.3765 8.1909 69.6743 8.75808 69.8059 9.51946C70.2965 8.75016 70.8703 8.18076 71.5212 7.80676C72.1711 7.44298 72.9249 7.25985 73.7769 7.25985C74.832 7.25985 75.5916 7.56197 76.0637 8.17625C76.5336 8.7873 76.6917 9.68674 76.5312 10.8592L75.1622 20.9619H70.1579L71.2189 13.1389C71.28 12.7222 71.2396 12.41 71.1172 12.208C70.9926 12.0058 70.7686 11.9104 70.4569 11.9104C70.1684 11.9104 69.9259 12.0204 69.7321 12.2563C69.5415 12.4865 69.4145 12.8098 69.3568 13.2176L68.3075 20.9619H63.3368L64.3931 13.1389C64.4542 12.7222 64.4196 12.41 64.296 12.208C64.1691 12.0058 63.9452 11.9104 63.6323 11.9104C63.3322 11.9104 63.0852 12.0204 62.8831 12.2563C62.6893 12.4865 62.5621 12.8098 62.5079 13.2176L61.4621 20.9619H56.4856ZM85.0829 12.5504C85.1843 11.7923 85.1383 11.2197 84.9397 10.8345C84.7469 10.4549 84.4041 10.2685 83.91 10.2685C83.5221 10.2685 83.1839 10.4549 82.8941 10.8277C82.6021 11.1994 82.3446 11.7722 82.1231 12.5504H85.0829ZM88.4443 8.81863C89.3159 9.93162 89.6021 11.6038 89.301 13.8385C89.2663 14.1002 89.2397 14.3012 89.2155 14.4405C89.1947 14.5718 89.16 14.6954 89.1266 14.8089H81.8195L81.7952 14.9941C81.6613 15.9812 81.6798 16.691 81.8494 17.1211C82.0238 17.5513 82.3689 17.7702 82.8941 17.7702C83.2821 17.7702 83.6029 17.6422 83.8753 17.3962C84.1478 17.1503 84.3763 16.7718 84.5495 16.2609H88.7572C88.3473 17.8398 87.5485 19.0774 86.3676 19.9838C85.189 20.8877 83.7726 21.338 82.1173 21.338C80.1721 21.338 78.7568 20.7317 77.8715 19.5132C76.9815 18.2901 76.694 16.554 76.9988 14.3012C77.3092 12.035 78.0723 10.2752 79.3098 9.02978C80.5312 7.77653 82.1069 7.15211 84.0151 7.15211C86.0895 7.15211 87.5647 7.70805 88.4443 8.81863Z" fill="#A4C929"/>
<path fill-rule="evenodd" clip-rule="evenodd" d="M96.6788 14.2746H98.8644L98.7204 7.17263L96.6788 14.2746ZM102.549 1.80127L104.26 20.9611H98.9013L98.8644 18.1435H95.6167L94.8124 20.9611H89.4492L96.3567 1.80127H102.549ZM114.559 11.2683C114.83 9.25473 114.884 7.89032 114.71 7.16249C114.543 6.43706 114.132 6.07541 113.46 6.07541C112.786 6.07541 112.265 6.43928 111.895 7.17715C111.524 7.91161 111.211 9.2739 110.937 11.2683C110.665 13.2527 110.615 14.6127 110.788 15.3461C110.963 16.0782 111.378 16.4487 112.056 16.4487C112.724 16.4487 113.24 16.0872 113.6 15.364C113.964 14.6441 114.287 13.2786 114.559 11.2683ZM119.16 4.02926C120.214 5.76435 120.523 8.22045 120.093 11.3964C119.842 13.2245 119.41 14.8137 118.793 16.1558C118.181 17.5056 117.368 18.6431 116.36 19.5674L118.459 22.0067L113.781 24.055L112.03 21.3103C111.969 21.3103 111.874 21.3182 111.741 21.3271C111.612 21.3339 111.514 21.3373 111.449 21.3373C109.083 21.3373 107.37 20.4737 106.316 18.7397C105.253 17.0137 104.935 14.5644 105.362 11.3964C105.795 8.23059 106.77 5.77569 108.302 4.0394C109.826 2.29656 111.761 1.42505 114.095 1.42505C116.433 1.42505 118.117 2.29656 119.16 4.02926ZM120.794 14.1096L122.465 1.80127H127.965L126.227 14.6194C126.151 15.1832 126.196 15.5942 126.369 15.8615C126.539 16.1253 126.836 16.2602 127.268 16.2602C127.704 16.2602 128.049 16.1253 128.29 15.8615C128.536 15.5942 128.69 15.1832 128.767 14.6194L130.504 1.80127H136.028L134.36 14.1096C134.024 16.6071 133.228 18.4411 131.977 19.5988C130.725 20.7634 128.933 21.3373 126.577 21.3373C124.241 21.3373 122.609 20.7634 121.68 19.5988C120.755 18.4411 120.458 16.6071 120.794 14.1096ZM135.287 20.9611L137.878 1.80127H143.38L140.782 20.9611H135.287Z" fill="#00793E"/>
</svg>
