<svg width="43" height="43" viewBox="0 0 43 43" fill="none" xmlns="http://www.w3.org/2000/svg">
<path d="M6.71559 8.01758C4.51753 8.01758 2.70697 9.82814 2.70697 12.0262V30.7331C2.70697 32.9312 4.51753 34.7417 6.71559 34.7417H36.1121C38.3102 34.7417 40.1208 32.9312 40.1208 30.7331V12.0262C40.1208 9.82814 38.3102 8.01758 36.1121 8.01758H6.71559ZM6.71559 10.69H36.1121C36.8684 10.69 37.4483 11.2699 37.4483 12.0262V30.7331C37.4483 31.4894 36.8684 32.0693 36.1121 32.0693H6.71559C5.9593 32.0693 5.37938 31.4894 5.37938 30.7331V12.0262C5.37938 11.2699 5.9593 10.69 6.71559 10.69ZM20.0777 13.3624C15.6682 13.3624 12.0604 16.9702 12.0604 21.3796C12.0604 25.7891 15.6682 29.3969 20.0777 29.3969H22.7501C27.1769 29.3969 30.7673 25.8052 30.7673 21.3796C30.7673 16.9528 27.1756 13.3624 22.7501 13.3624H20.0777ZM20.0777 16.0348C23.048 16.0348 25.4225 18.4093 25.4225 21.3796C25.4225 24.35 23.048 26.7245 20.0777 26.7245C17.1073 26.7245 14.7328 24.35 14.7328 21.3796C14.7328 18.4093 17.1073 16.0348 20.0777 16.0348ZM18.9913 18.2476C17.6939 18.7072 16.7371 19.9232 16.7371 21.3796C16.7371 22.8361 17.6925 24.0521 18.9927 24.5117L18.9913 18.2476ZM21.164 18.2476V24.5117C22.4628 24.0521 23.4182 22.8361 23.4182 21.3796C23.4182 19.9232 22.4628 18.7072 21.1627 18.2476H21.164Z" fill="white"/>
</svg>
