<svg width="43" height="43" viewBox="0 0 43 43" fill="none" xmlns="http://www.w3.org/2000/svg">
<g clip-path="url(#clip0_465_2164)">
<path d="M36.0547 32.8329C36.0547 33.338 35.714 33.7015 35.2236 33.7015C34.7185 33.7015 34.3924 33.3153 34.3924 32.8329C34.3924 32.3506 34.7185 31.9644 35.2236 31.9644C35.714 31.9644 36.0547 32.3506 36.0547 32.8329ZM12.9824 31.9644C12.4546 31.9644 12.1513 32.3506 12.1513 32.8329C12.1513 33.3153 12.4559 33.7015 12.9824 33.7015C13.4648 33.7015 13.7908 33.338 13.7908 32.8329C13.7828 32.3506 13.4648 31.9644 12.9824 31.9644ZM21.7052 31.943C21.3043 31.943 21.0584 32.2022 20.9996 32.5884H22.4174C22.3506 32.1648 22.0913 31.943 21.7052 31.943ZM29.7077 31.9644C29.2026 31.9644 28.8993 32.3506 28.8993 32.8329C28.8993 33.3153 29.204 33.7015 29.7077 33.7015C30.2128 33.7015 30.5388 33.338 30.5388 32.8329C30.5388 32.3506 30.2115 31.9644 29.7077 31.9644ZM37.5686 33.9019C37.5686 33.9246 37.5913 33.9393 37.5913 33.9834C37.5913 34.0061 37.5686 34.0208 37.5686 34.0649C37.5459 34.0876 37.5459 34.1023 37.5312 34.1237C37.5085 34.1464 37.4938 34.1611 37.4497 34.1611C37.427 34.1838 37.4123 34.1838 37.3682 34.1838C37.3455 34.1838 37.3308 34.1838 37.2867 34.1611C37.264 34.1611 37.2493 34.1384 37.2279 34.1237C37.2052 34.101 37.1905 34.0863 37.1905 34.0649C37.1678 34.0275 37.1678 34.0061 37.1678 33.9834C37.1678 33.946 37.1678 33.9246 37.1905 33.9019C37.1905 33.8645 37.2132 33.8431 37.2279 33.8204C37.2506 33.7977 37.2653 33.7977 37.2867 33.783C37.3241 33.7603 37.3455 33.7603 37.3682 33.7603C37.4056 33.7603 37.427 33.7603 37.4497 33.783C37.4871 33.8044 37.5085 33.8044 37.5312 33.8204C37.5539 33.8364 37.5459 33.8645 37.5686 33.9019ZM37.4056 34.0061C37.443 34.0061 37.443 33.9834 37.4644 33.9834C37.4871 33.9607 37.4871 33.946 37.4871 33.9246C37.4871 33.9032 37.4871 33.8872 37.4644 33.8658C37.443 33.8658 37.427 33.8431 37.3829 33.8431H37.264V34.1023H37.3228V33.9981H37.3455L37.427 34.1023H37.4858L37.4056 34.0061ZM42.9656 8.38837V34.5192C42.9652 35.4643 42.5896 36.3705 41.9214 37.0387C41.2532 37.707 40.3469 38.0825 39.4019 38.0829H3.76926C2.82423 38.0825 1.918 37.707 1.24976 37.0387C0.581521 36.3705 0.205951 35.4643 0.205597 34.5192V8.38837C0.205951 7.44334 0.581521 6.53711 1.24976 5.86887C1.918 5.20063 2.82423 4.82506 3.76926 4.82471H39.4019C40.3469 4.82506 41.2532 5.20063 41.9214 5.86887C42.5896 6.53711 42.9652 7.44334 42.9656 8.38837ZM4.95848 18.7507C4.95848 24.4295 9.5684 29.0314 15.2393 29.0314C17.2588 29.0257 19.2327 28.4298 20.9181 27.3171C15.5065 22.9156 15.5439 14.6084 20.9181 10.2056C19.2344 9.08939 17.2594 8.49318 15.2393 8.49126C9.5684 8.48458 4.95848 13.0932 4.95848 18.7507ZM21.5862 26.828C26.8202 22.7446 26.7975 14.7875 21.5862 10.6826C16.375 14.7875 16.3523 22.7526 21.5862 26.828ZM11.0222 32.4922C11.0222 31.8468 10.5986 31.4232 9.93051 31.4005C9.58844 31.4005 9.22499 31.5047 8.98047 31.8829C8.80275 31.5782 8.4981 31.4005 8.07452 31.4005C7.9206 31.3982 7.76844 31.4335 7.63127 31.5033C7.49411 31.5732 7.37609 31.6755 7.28749 31.8014V31.4754H6.67952V34.1999H7.28749C7.28749 32.7969 7.10176 31.9577 7.9556 31.9577C8.71323 31.9577 8.56491 32.7154 8.56491 34.1999H9.1515C9.1515 32.841 8.96577 31.9577 9.8196 31.9577C10.5772 31.9577 10.4276 32.7007 10.4276 34.1999H11.0369V32.4922H11.0222ZM14.356 31.4754H13.7694V31.8014C13.6656 31.6719 13.5331 31.5682 13.3824 31.4987C13.2317 31.4291 13.0668 31.3955 12.9009 31.4005C12.1366 31.4005 11.55 32.0098 11.55 32.8329C11.55 33.6641 12.1366 34.2654 12.9009 34.2654C13.2871 34.2654 13.569 34.1237 13.7694 33.8645V34.2066H14.356V31.4754ZM17.3625 33.3754C17.3625 32.2624 15.6628 32.7661 15.6628 32.2463C15.6628 31.8228 16.5461 31.8909 17.0365 32.1648L17.281 31.6825C16.5835 31.2295 15.0388 31.2375 15.0388 32.2918C15.0388 33.3527 16.7385 32.9078 16.7385 33.4048C16.7385 33.8725 15.7363 33.8351 15.2018 33.4636L14.9426 33.9313C15.7737 34.4952 17.3625 34.3763 17.3625 33.3741V33.3754ZM19.9908 34.0649L19.8278 33.5598C19.5459 33.7148 18.9218 33.8859 18.9218 33.2552V32.0232H19.8946V31.474H18.9218V30.6429H18.3125V31.474H17.7487V32.0165H18.3125V33.2565C18.3125 34.5633 19.5966 34.3255 19.9908 34.0649ZM20.9769 33.0708H23.0187C23.0187 31.8682 22.4695 31.3925 21.7265 31.3925C20.9395 31.3925 20.3756 31.9791 20.3756 32.8249C20.3756 34.3469 22.0539 34.5994 22.885 33.8792L22.6031 33.4342C22.0245 33.9099 21.148 33.8645 20.9769 33.0708ZM25.365 31.4754C25.0243 31.327 24.5045 31.3417 24.2373 31.8014V31.4754H23.628V34.1999H24.2373V32.6632C24.2373 31.8014 24.9428 31.9136 25.1873 32.0392L25.365 31.4754ZM26.1521 32.8329C26.1521 31.9858 27.0139 31.7119 27.6887 32.2089L27.9706 31.7266C27.1088 31.0518 25.5428 31.4219 25.5428 32.8396C25.5428 34.3094 27.205 34.6061 27.9706 33.9527L27.6887 33.4703C27.0059 33.9527 26.1521 33.6641 26.1521 32.8316V32.8329ZM31.1027 31.4754H30.4934V31.8014C29.8774 30.985 28.274 31.446 28.274 32.8329C28.274 34.2587 29.9362 34.6662 30.4934 33.8645V34.2066H31.1027V31.4754ZM33.6041 31.4754C33.4264 31.3858 32.7877 31.2602 32.4763 31.8014V31.4754H31.8897V34.1999H32.4763V32.6632C32.4763 31.8468 33.1444 31.8989 33.4264 32.0392L33.6041 31.4754ZM36.5959 30.369H36.0093V31.8014C35.4 30.993 33.7898 31.4232 33.7898 32.8329C33.7898 34.2734 35.4601 34.6582 36.0093 33.8645V34.2066H36.5959V30.369ZM37.1611 24.7943V25.1364H37.2199V24.7943H37.3602V24.7355H37.0181V24.7943H37.1611ZM37.6501 33.9834C37.6501 33.946 37.6501 33.9019 37.6287 33.8645C37.606 33.8418 37.5913 33.8057 37.57 33.783C37.5486 33.7603 37.5112 33.7456 37.4884 33.7242C37.451 33.7242 37.4069 33.7015 37.3695 33.7015C37.3468 33.7015 37.3107 33.7242 37.2653 33.7242C37.236 33.7406 37.2086 33.7604 37.1838 33.783C37.1464 33.8044 37.125 33.8418 37.125 33.8645C37.1023 33.9019 37.1023 33.946 37.1023 33.9834C37.1023 34.0061 37.1023 34.0422 37.125 34.0876C37.125 34.1104 37.1477 34.1464 37.1838 34.1691C37.2063 34.1945 37.2342 34.2145 37.2653 34.2279C37.3027 34.2493 37.3468 34.2493 37.3695 34.2493C37.4069 34.2493 37.451 34.2493 37.4884 34.2279C37.5112 34.2052 37.5472 34.1905 37.57 34.1691C37.5927 34.1478 37.6074 34.1104 37.6287 34.0876C37.6501 34.0435 37.6501 34.0061 37.6501 33.9834ZM37.888 24.7275H37.7837L37.6648 24.9867L37.5459 24.7275H37.4417V25.1284H37.5005V24.8237L37.6194 25.0829H37.7009L37.8051 24.8237V25.1284H37.8866L37.888 24.7275ZM38.214 18.7507C38.214 13.0932 33.6041 8.48458 27.9332 8.48458C25.9135 8.48964 23.9395 9.08558 22.2543 10.1989C27.6072 14.6017 27.6887 22.9303 22.2543 27.3104C23.939 28.4247 25.9134 29.0207 27.9332 29.0247C33.6041 29.0328 38.214 24.4295 38.214 18.7507Z" fill="white"/>
</g>
<defs>
<clipPath id="clip0_465_2164">
<rect width="42.7586" height="42.7586" fill="white" transform="translate(0.20697)"/>
</clipPath>
</defs>
</svg>
