<svg width="41" height="39" viewBox="0 0 41 39" fill="none" xmlns="http://www.w3.org/2000/svg">
<path d="M18.3613 16.8003C18.7787 16.8003 19.1156 17.1396 19.1156 17.5546C19.1156 17.9697 18.7787 18.3066 18.3613 18.3066H16.518V20.1523C16.518 20.5673 16.1787 20.9042 15.7636 20.9042C15.3486 20.9042 15.0117 20.5673 15.0117 20.1523V18.3066H13.166C12.751 18.3066 12.4141 17.9697 12.4141 17.5546C12.4141 17.1396 12.751 16.8003 13.166 16.8003H15.0117V14.957C15.0117 14.5395 15.3486 14.2051 15.7636 14.2051C16.1787 14.2051 16.518 14.5395 16.518 14.957V16.8003H18.3613Z" fill="white"/>
<path d="M24.8773 22.9651C25.285 23.0432 25.5511 23.4411 25.473 23.8488C24.9774 26.3781 22.7435 28.2165 20.1605 28.2165C17.5751 28.2165 15.3437 26.3781 14.8456 23.8488C14.7675 23.4411 15.0336 23.0432 15.4413 22.9651C15.849 22.8845 16.2445 23.1506 16.3251 23.5583C16.684 25.3845 18.2953 26.7077 20.1581 26.7077C22.0208 26.7077 23.6346 25.3845 23.9886 23.5583C24.0716 23.1506 24.4671 22.8845 24.8773 22.9651Z" fill="white"/>
<path d="M27.454 16.8013C27.8715 16.8013 28.2084 17.1406 28.2084 17.5557C28.2084 17.9707 27.8715 18.3076 27.454 18.3076H22.2588C21.8437 18.3076 21.5068 17.9707 21.5068 17.5557C21.5068 17.1406 21.8437 16.8013 22.2588 16.8013H27.454Z" fill="white"/>
<path d="M39.4699 17.4473C40.1754 16.7613 40.4122 15.858 40.2755 15.023C40.2706 14.9864 40.2633 14.9498 40.2536 14.9131C40.2511 14.9009 40.2487 14.8887 40.2462 14.8765C40.195 14.6495 40.1193 14.4322 40.0167 14.2247L40.0045 14.2027C39.6261 13.4483 38.9035 12.8551 37.9269 12.711L29.7434 11.5221C28.3201 11.317 27.097 10.4259 26.4598 9.13929L22.8026 1.72239C21.7821 -0.343011 18.8378 -0.343011 17.8173 1.72239L14.1601 9.13929C13.5254 10.4259 12.2998 11.317 10.8765 11.5221L2.69298 12.711C0.412736 13.0431 -0.493015 15.8409 1.15491 17.4473L7.07525 23.2236C8.10551 24.2246 8.57426 25.6674 8.33012 27.0834L6.93121 35.2352C6.74567 36.3265 7.20221 37.2981 7.95171 37.8841C7.97856 37.906 8.00786 37.928 8.03715 37.9475C8.06157 37.9671 8.09087 37.9842 8.11528 38.0037C8.23735 38.0891 8.36674 38.1624 8.50346 38.2259C8.5352 38.2429 8.56694 38.2551 8.60356 38.2698C8.73539 38.3284 8.87455 38.3748 9.01615 38.409C9.07718 38.426 9.13822 38.4358 9.20169 38.448C9.24808 38.4578 9.29446 38.4651 9.34085 38.47C9.37747 38.4749 9.41409 38.4798 9.45071 38.4822C9.73391 38.5066 10.0269 38.4871 10.3198 38.4138C10.481 38.3748 10.6421 38.3186 10.8057 38.2478C10.8594 38.2234 10.9131 38.1966 10.9644 38.1697L18.2861 34.3221C19.5556 33.6532 21.0741 33.6532 22.3436 34.3221L29.6653 38.1697C31.7014 39.239 34.0866 37.5105 33.6985 35.2425L32.2995 27.0907C32.0603 25.6747 32.529 24.2319 33.5544 23.2309L39.4699 17.4473ZM12.4121 17.5572C12.4121 17.1421 12.749 16.8028 13.164 16.8028H15.0097V14.9595C15.0097 14.5421 15.3466 14.2076 15.7617 14.2076C16.1767 14.2076 16.5161 14.5421 16.5161 14.9595V16.8028H18.3593C18.7768 16.8028 19.1137 17.1421 19.1137 17.5572C19.1137 17.9722 18.7768 18.3091 18.3593 18.3091H16.5161V20.1548C16.5161 20.5698 16.1767 20.9067 15.7617 20.9067C15.3466 20.9067 15.0097 20.5698 15.0097 20.1548V18.3091H13.164C12.7515 18.3091 12.4121 17.9722 12.4121 17.5572ZM25.4735 23.8486C24.9779 26.3779 22.744 28.2162 20.161 28.2162C17.5756 28.2162 15.3442 26.3779 14.8462 23.8486C14.768 23.4409 15.0341 23.0429 15.4418 22.9648C15.8496 22.8842 16.2451 23.1504 16.3256 23.5581C16.6845 25.3842 18.2958 26.7074 20.1586 26.7074C22.0214 26.7074 23.6351 25.3842 23.9891 23.5581C24.0697 23.1504 24.4652 22.8842 24.8729 22.9648C25.2855 23.0429 25.5516 23.4409 25.4735 23.8486ZM27.4534 18.3091H22.2582C21.8431 18.3091 21.5062 17.9722 21.5062 17.5572C21.5062 17.1421 21.8431 16.8028 22.2582 16.8028H27.4534C27.8709 16.8028 28.2078 17.1421 28.2078 17.5572C28.2102 17.9722 27.8733 18.3091 27.4534 18.3091Z" fill="#92C900"/>
<g opacity="0.22">
<path d="M39.4693 17.4467L33.5466 23.223C32.5212 24.224 32.0524 25.6669 32.2917 27.0829L33.6906 35.2346C34.0812 37.5051 31.696 39.2311 29.6575 38.1618L22.3358 34.3142C21.0662 33.6453 19.5477 33.6453 18.2782 34.3142L10.9565 38.1618C10.9028 38.1887 10.8491 38.2155 10.7978 38.24C10.6367 38.3108 10.4756 38.3669 10.312 38.406C10.0215 38.4792 9.72849 38.5012 9.44285 38.4743C9.40623 38.4719 9.36961 38.467 9.33299 38.4621C9.2866 38.4572 9.24022 38.4499 9.19383 38.4401C9.13036 38.4279 9.06932 38.4182 9.00829 38.4011C8.86425 38.3669 8.72753 38.3205 8.5957 38.2619C8.56152 38.2473 8.52978 38.2351 8.4956 38.218C8.35888 38.1545 8.22949 38.0813 8.10742 37.9958C8.08301 37.9763 8.05371 37.9592 8.0293 37.9397L11.9331 35.9768L12.0747 35.9084L18.5199 32.5174C19.6405 31.929 20.9759 31.929 22.0916 32.5174L28.5369 35.9084L28.6785 35.9768L30.0993 36.6921C31.3005 37.2951 32.6701 36.26 32.4187 34.9392L31.9011 32.2293V32.2244L30.8562 26.1478C30.6438 24.9003 31.0564 23.6308 31.9597 22.7494L36.796 18.0376L40.2433 14.8662C40.2457 14.8784 40.2481 14.8906 40.2506 14.9028C40.2603 14.9395 40.2677 14.9761 40.2726 15.0127C40.4117 15.8574 40.1773 16.7607 39.4693 17.4467Z" fill="url(#paint0_linear_13467_5209)"/>
</g>
<defs>
<linearGradient id="paint0_linear_13467_5209" x1="34.1586" y1="36.428" x2="21.8552" y2="24.1245" gradientUnits="userSpaceOnUse">
<stop/>
<stop offset="1" stop-opacity="0"/>
</linearGradient>
</defs>
</svg>
