<svg width="31" height="23" viewBox="0 0 31 23" fill="none" xmlns="http://www.w3.org/2000/svg">
<path d="M3.42438 0.509399C1.63975 0.509399 0.169743 1.97941 0.169743 3.76403V18.9523C0.169743 20.7369 1.63975 22.2069 3.42438 22.2069H27.2917C29.0763 22.2069 30.5463 20.7369 30.5463 18.9523V3.76403C30.5463 1.97941 29.0763 0.509399 27.2917 0.509399H3.42438ZM3.42438 2.67915H27.2917C27.9046 2.67915 28.3766 3.15108 28.3766 3.76403V18.9523C28.3766 19.5653 27.9046 20.0372 27.2917 20.0372H3.42438C2.81142 20.0372 2.3395 19.5653 2.3395 18.9523V3.76403C2.3395 3.15108 2.81142 2.67915 3.42438 2.67915ZM19.0531 7.42549C16.9636 7.42549 15.8668 8.45613 15.8668 9.76449C15.8668 12.1328 18.6441 11.8041 18.6441 13.0191C18.6441 13.2285 18.4705 13.6993 17.3206 13.6993C16.1706 13.6993 15.422 13.2925 15.422 13.2925L15.0857 14.8547C15.0857 14.8547 15.7963 15.2941 17.2229 15.2941C18.6441 15.2941 20.6446 14.2006 20.6446 12.6145C20.6446 10.7094 17.8641 10.5836 17.8641 9.73411C17.8641 9.30016 18.233 8.953 19.2202 8.953C19.8646 8.953 20.5763 9.46289 20.5763 9.46289L20.9169 7.80303C20.9169 7.80303 19.9731 7.42875 19.0509 7.42875L19.0531 7.42549ZM10.1376 7.5611L8.30632 12.9182C8.30632 12.9182 8.21519 12.4539 8.17071 12.1718C7.13466 9.85019 5.45852 8.98446 5.45852 8.98446L7.05329 15.0533H9.22305L12.2716 7.5611H10.1398H10.1376ZM13.0527 7.5611L11.8658 15.0533H13.8685L15.0543 7.5611H13.0527ZM23.8342 7.5611L20.5795 15.0533H22.5453L22.9522 14.0031H25.4615L25.6644 15.0533H27.4609L25.9356 7.5611H23.8331H23.8342ZM3.25405 7.59365C3.25405 7.59365 7.15635 8.79244 8.06874 11.7314L7.39286 8.34113C7.39286 8.34113 7.09452 7.59257 6.30798 7.59257H3.25513L3.25405 7.59365ZM24.5795 9.73086L25.1545 12.545H23.5272L24.5795 9.73086Z" fill="white"/>
</svg>
