<?xml version="1.0" encoding="UTF-8"?>
<svg class="garbe-share-native-mobile-icon wepink-garbe-share-native-mobile-0-x-garbeShareNativeMobileIcon" width="32" height="32" viewBox="0 0 32 32" fill="none" xmlns="http://www.w3.org/2000/svg" style="transition: none !important; animation-duration: 0s !important; animation-delay: -0.0001s; animation-play-state: paused; animation-trigger: none; display: inline; fill: none; height: 32px; transition-property: none; visibility: visible; width: 32px"><g clip-path="url(#clip0_263_965)" style="transition: none !important; animation-duration: 0s !important; animation-delay: -0.0001s; animation-play-state: paused; animation-trigger: none; clip-path: url(&quot;#clip0_263_965&quot;); fill: none; transform-origin: 0px 0px; transition-property: none; visibility: visible"><path fill-rule="evenodd" clip-rule="evenodd" d="M3.7495 11.058L8.89842 17.2107L16.2993 12.9378C16.6016 12.7632 16.9603 12.715 17.2965 12.8038C17.6327 12.8925 17.9189 13.1108 18.0921 13.4108C18.2653 13.7108 18.3113 14.0679 18.2201 14.4034C18.1288 14.7389 17.9077 15.0255 17.6054 15.2L10.2045 19.4729L12.9584 27.0083L27.1023 8.20879L3.7495 11.058ZM7.43759 19.5622L1.39956 12.3504C1.1295 12.0278 0.952393 11.638 0.886938 11.2221C0.821483 10.8062 0.870111 10.3797 1.02769 9.98757C1.18526 9.59546 1.44594 9.25233 1.78218 8.99442C2.11841 8.73651 2.51773 8.57339 2.93796 8.52229L28.3063 5.42638C28.6906 5.38002 29.0795 5.4468 29.4247 5.61846C29.7699 5.79012 30.0564 6.05913 30.2487 6.39224C30.441 6.72536 30.5307 7.10796 30.5068 7.49275C30.4828 7.87754 30.3463 8.24765 30.114 8.55732L14.7471 28.9799C14.4927 29.3184 14.1516 29.5828 13.7599 29.7451C13.3683 29.9074 12.9406 29.9615 12.522 29.9018C12.1035 29.842 11.7097 29.6706 11.3822 29.4056C11.0548 29.1407 10.8059 28.7921 10.6618 28.3966L7.43911 19.5614L7.43759 19.5622Z" fill="#FF0080" style="transition: none !important; animation-duration: 0s !important; animation-delay: -0.0001s; animation-play-state: paused; animation-trigger: none; fill: rgb(255, 0, 128); fill-rule: evenodd; transform-origin: 0px 0px; transition-property: none; visibility: visible"></path></g><defs style="transition: none !important; animation-duration: 0s !important; visibility: visible"><clipPath id="clip0_263_965" style="transition: none !important; animation-duration: 0s !important; animation-delay: -0.0001s; animation-play-state: paused; animation-trigger: none; fill: none; transform-origin: 0px 0px; transition-property: none; visibility: visible"><rect width="32" height="32" fill="white" style="transition: none !important; animation-duration: 0s !important; animation-delay: -0.0001s; animation-play-state: paused; animation-trigger: none; fill: rgb(255, 255, 255); transform-origin: 0px 0px; transition-property: none; visibility: visible" /></clipPath></defs></svg>