<?xml version="1.0" encoding="UTF-8"?>
<svg data-v-006b7cb4="" width="20" height="18" viewBox="0 0 20 18" fill="none" xmlns="http://www.w3.org/2000/svg" style="transition: none !important; animation-duration: 0s !important; animation-delay: -0.0001s; animation-play-state: paused; animation-trigger: none; display: inline-block; fill: none; height: 18px; transition-property: none; visibility: visible; width: 20px"><path data-v-006b7cb4="" d="M9.99986 14.1626L15.5293 17.5L14.062 11.21L18.9472 6.97789L12.5141 6.43211L9.99986 0.5L7.48565 6.43211L1.05249 6.97789L5.93775 11.21L4.47039 17.5L9.99986 14.1626Z" fill="#FAB400" style="transition: none !important; animation-duration: 0s !important; animation-delay: -0.0001s; animation-play-state: paused; animation-trigger: none; fill: rgb(250, 180, 0); stroke: rgb(224, 162, 0); stroke-width: 1.5px; transform-origin: 0px 0px; transition-property: none; visibility: visible"></path><path data-v-006b7cb4="" d="M10.3874 13.5205L9.99986 13.2866L9.61231 13.5205L5.60458 15.9394L6.66814 11.3804L6.77099 10.9395L6.42883 10.6431L2.88712 7.57494L7.54905 7.17942L7.9997 7.14119L8.17619 6.72478L9.99986 2.42195L11.8235 6.72478L12 7.14119L12.4507 7.17942L17.1126 7.57494L13.5709 10.6431L13.2287 10.9395L13.3316 11.3804L14.3951 15.9394L10.3874 13.5205Z" stroke="#E0A200" stroke-width="1.5" style="transition: none !important; animation-duration: 0s !important; animation-delay: -0.0001s; animation-play-state: paused; animation-trigger: none; fill: rgb(250, 180, 0); stroke: rgb(224, 162, 0); stroke-width: 1.5px; transform-origin: 0px 0px; transition-property: none; visibility: visible"></path></svg>